Coordinates
version=1
nRows=7
nColumns=40
inDegrees=yes

Units are S.I. units (second, meters, Newtons, ...)
Angles are in degrees.

endheader
time	pelvis_tilt	pelvis_list	pelvis_rotation	pelvis_tx	pelvis_ty	pelvis_tz	hip_flexion_r	hip_adduction_r	hip_rotation_r	knee_angle_r	knee_angle_r_beta	ankle_angle_r	subtalar_angle_r	mtp_angle_r	hip_flexion_l	hip_adduction_l	hip_rotation_l	knee_angle_l	knee_angle_l_beta	ankle_angle_l	subtalar_angle_l	mtp_angle_l	lumbar_extension	lumbar_bending	lumbar_rotation	arm_flex_r	arm_add_r	arm_rot_r	elbow_flex_r	pro_sup_r	wrist_flex_r	wrist_dev_r	arm_flex_l	arm_add_l	arm_rot_l	elbow_flex_l	pro_sup_l	wrist_flex_l	wrist_dev_l
     19.09750000	     -5.31581885	     -5.91794643	      8.26398351	      1.02076935	      0.92745913	      0.42888927	      4.06937528	     -0.43866928	    -17.57535125	     18.59280150	     18.59280150	     14.82318589	      2.45348586	     -3.89866240	     23.57153444	     -7.04968642	     -1.61461632	     25.56100388	     25.56100388	     11.05601836	    -11.60910246	      4.24229703	     -8.30288033	      4.75204472	      4.39297530	     19.99570482	    -18.03085640	      5.16934816	     71.26671300	     43.76875440	      0.00000000	      0.00000000	      5.99556973	    -10.65323831	    -16.26012657	     29.31265789	     45.47347426	      0.00000000	      0.00000000
     19.11057143	     -5.16450117	     -6.02365425	      8.19677293	      1.02032382	      0.92837486	      0.42552618	      4.31206436	     -0.75135226	    -17.47908551	     19.94456103	     19.94456103	     14.56993709	      2.17199037	     -4.13473010	     22.86322469	     -7.05099048	     -1.76226237	     25.26413130	     25.26413130	     11.39899811	    -11.36439606	      4.13469363	     -8.43221362	      4.96504556	      4.12698975	     18.23266754	    -17.73288473	      5.35799351	     70.09787274	     43.80149401	      0.00000000	      0.00000000	      6.43436007	    -10.94714076	    -16.25546623	     29.74856531	     45.48407643	      0.00000000	      0.00000000
     19.12364286	     -5.39792385	     -5.67409103	      7.86643627	      1.01932969	      0.92866515	      0.42233696	      5.62802535	     -1.81569702	    -16.95188343	     22.60170525	     22.60170525	     14.44134834	      1.45578424	     -4.94789667	     22.36522483	     -6.64891019	     -2.61396790	     24.77393015	     24.77393015	     11.60416523	    -10.77184908	      3.87650569	     -8.24629358	      4.55223838	      4.62466279	     16.65323460	    -17.80193480	      5.06467933	     67.28296794	     43.92219317	      0.00000000	      0.00000000	      7.12783825	    -11.04956331	    -16.14246879	     30.96525012	     45.48775756	      0.00000000	      0.00000000
     19.13671429	     -5.43925583	     -5.64126657	      7.67537762	      1.01848267	      0.92918760	      0.41927206	      6.51441630	     -2.35952727	    -16.46965889	     24.65322726	     24.65322726	     13.71783651	      0.45837065	     -6.40691487	     21.80706670	     -6.53991838	     -3.07366321	     24.39326316	     24.39326316	     11.67660548	    -10.46493138	      3.18740064	     -8.16018302	      4.51186774	      4.21045094	     16.11529650	    -16.55097492	      3.73212358	     62.26759520	     44.20798903	      0.00000000	      0.00000000	      6.84071164	    -11.54443727	    -15.53204719	     33.21839075	     45.44051342	      0.00000000	      0.00000000
     19.14978571	     -5.53741430	     -5.43854930	      7.42868621	      1.01744322	      0.92958785	      0.41618552	      7.73678844	     -3.20289138	    -15.95468451	     27.25652208	     27.25652208	     13.21348005	     -0.23059119	     -7.22885683	     21.18187800	     -6.20349291	     -3.47839924	     23.83793043	     23.83793043	     11.91561586	    -10.15672256	      2.98825647	     -8.15293446	      4.32824143	      4.32899679	     14.44584866	    -16.56281202	      3.86349551	     60.48718436	     44.27504566	      0.00000000	      0.00000000	      7.35073261	    -11.85656754	    -15.43831943	     34.18744505	     45.45087760	      0.00000000	      0.00000000
     19.16285714	     -5.48467713	     -5.36104722	      7.24878847	      1.01640853	      0.93014265	      0.41320914	      8.78591072	     -3.85850689	    -15.57929294	     29.76059703	     29.76059703	     12.56543034	     -1.04882451	     -7.85387527	     20.53318861	     -6.02825888	     -3.87895009	     23.44991341	     23.44991341	     12.02040155	    -10.00731289	      2.87780051	     -8.33554813	      4.34422426	      4.29477561	     12.84987037	    -16.54658200	      3.89095048	     58.76856572	     44.33695018	      0.00000000	      0.00000000	      7.91469534	    -12.24186698	    -15.40940577	     35.04169751	     45.46541621	      0.00000000	      0.00000000
     19.17592857	     -5.57819143	     -5.33772515	      6.98331912	      1.01515760	      0.93046337	      0.41055972	     10.10294904	     -4.32313751	    -14.73151707	     32.21664594	     32.21664594	     11.01451777	     -2.82407232	    -10.17329902	     19.99800378	     -5.86419616	     -4.10715273	     22.92180557	     22.92180557	     11.80849291	    -10.20681274	      2.05181839	     -8.27368507	      4.33729500	      3.87886102	     12.73701839	    -15.40383916	      2.51437741	     52.94415424	     44.66141606	      0.00000000	      0.00000000	      7.31257716	    -12.97234268	    -14.62125119	     37.92713832	     45.42846327	      0.00000000	      0.00000000
